<svg width="89" height="77" viewBox="0 0 89 77" fill="none" xmlns="http://www.w3.org/2000/svg">
<path d="M43.1573 19.8347C44.0791 20.3609 45.2103 20.3609 46.132 19.8347L76.468 2.51634C78.2222 1.5149 80.4448 2.49815 80.8837 4.46981L88.4283 38.3618C88.476 38.5758 88.5 38.7944 88.5 39.0136V65.7405C88.5 68.7777 84.5044 69.8918 82.9328 67.2927L75.5 55L64.5003 41.1944C63.4182 39.8361 61.4123 39.6777 60.1303 40.8492L46.7099 53.1128C45.5467 54.1757 43.7595 54.1576 42.618 53.0713L29.8295 40.9007C28.57 39.702 26.5584 39.8218 25.45 41.1615L14 55L5.94333 67.3727C4.28055 69.9263 0.310912 68.6616 0.431686 65.6168L1.49037 38.9265C1.49678 38.7649 1.51624 38.6042 1.54855 38.4458L5.39466 19.5919L8.46109 4.56006C8.8693 2.55896 11.1143 1.54182 12.8879 2.55436L43.1573 19.8347Z" fill="#84AE8F"/>
<path d="M41.7772 21.9048C43.1971 22.6847 43.9071 23.0747 44.6804 23.0729C45.4538 23.0712 46.162 22.6779 47.5783 21.8915L71.0879 8.83792C74.26 7.07662 75.8461 6.19597 77.2092 6.79614C78.5723 7.39631 78.9936 9.16085 79.8364 12.6899L85.8359 37.8128C85.9179 38.156 85.9588 38.3276 85.9794 38.5024C86 38.6772 86 38.8536 86 39.2065V50.8267C86 56.1106 86 58.7526 85.2366 59.6065C84.4063 60.5353 83.0885 60.8543 81.9255 60.4081C80.856 59.9978 79.6477 57.6483 77.2311 52.9494V52.9494C77.1495 52.7907 77.1087 52.7113 77.0633 52.6347C77.0133 52.5501 76.9591 52.4681 76.901 52.3888C76.8484 52.317 76.7915 52.2483 76.6776 52.1109L66.4211 39.7324C64.5765 37.5062 63.6542 36.393 62.3946 36.2902C61.1351 36.1873 60.0444 37.1361 57.8631 39.0335L48.6917 47.0115C46.7827 48.6721 45.8282 49.5025 44.6905 49.4922C43.5529 49.4819 42.6135 48.6345 40.7348 46.9396L31.9959 39.0559C29.8782 37.1454 28.8193 36.1902 27.5706 36.2602C26.3219 36.3301 25.3764 37.3977 23.4853 39.5327L12.4091 52.0381C12.282 52.1816 12.2185 52.2533 12.1599 52.3287C12.0651 52.4504 11.9799 52.5793 11.905 52.7142C11.8586 52.7976 11.8175 52.8842 11.7353 53.0573V53.0573C9.54383 57.6709 8.44812 59.9776 7.60861 60.4446C6.2299 61.2114 4.49285 60.7793 3.63399 59.456C3.11102 58.6502 3.22358 56.0989 3.44869 50.9963L3.97762 39.0073C3.9888 38.7538 3.9944 38.627 4.01063 38.5014C4.02687 38.3757 4.05368 38.2517 4.10731 38.0037L8 20L9.39611 13.0194C10.1295 9.35275 10.4961 7.51941 11.874 6.87817C13.252 6.23692 14.8907 7.13702 18.1681 8.9372L41.7772 21.9048Z" fill="#AFC9A4"/>
<path d="M43.3183 25.7707C44.1923 26.2274 45.2348 26.2254 46.107 25.7654L72.6602 11.7614C74.368 10.8607 76.4696 11.7843 76.9609 13.6515L83.4012 38.1246C83.4668 38.3738 83.5 38.6305 83.5 38.8881V50.2855C83.5 52.7358 80.1763 53.4832 79.1273 51.2688V51.2688C79.0428 51.0903 78.9356 50.9235 78.8084 50.7725L64.9077 34.2653C63.8501 33.0095 61.9796 32.837 60.7103 33.8783L46.6752 45.3913C45.543 46.32 43.9058 46.2956 42.8017 45.3336L29.7003 33.9173C28.4754 32.85 26.6235 32.9516 25.5228 34.1467L10.2379 50.7417C10.0805 50.9126 9.9539 51.1095 9.86373 51.3236V51.3236C9.01249 53.3453 6 52.737 6 50.5434V38.8809C6 38.628 6.03198 38.3761 6.09517 38.1312L10 23L12.2333 13.7352C12.6906 11.8378 14.8092 10.8754 16.539 11.7792L43.3183 25.7707Z" fill="#D9EAD3"/>
</svg>
